Patient4_TMGait_0pt3_02_right_29_EMG.mot
version=1
nRows=39
nColumns=33
inDegrees=no
endheader
time	1LAddLong	2LGlutMax	3LGlutMed	4LIliopsoas	5LSemiMemb	6LBicFemLong	7LRecFem	8LVastMed	9LVastLat	10LGasMed	11LTibAnt	12lTibPost	13LPeroneusLong	14LSol	15LExtDigLong	16LFlexDigLong	17RAddLong	18RGlutMax	19RGlutMed	20RIliopsoas	21RSemiMemb	22RBicFemLong	23RRecFem	24RVastMed	25RVastLat	26RGasMed	27RTibAnt	28RTibPost	29RPeroneusLong	30RSol	31RExtDigLong	32RFlexDigLong
57.17	-0.024719	0.018463	0.048523	-0.000458	0.038605	-0.048676	0.010986	0.007477	0.028076	-0.003052	0.028076	0.001221	-0.006866	0.077515	0.070953	0.010529	0.001984	0.006104	0.1059	0.22675	0.13275	0.072021	-0.005188	-0.064392	-0.23346	-0.018311	-0.003357	-0.005188	0.083618	-0.41031	-0.000458	-0.00946
57.171	-0.029907	-0.002899	0.033264	0.011597	-0.000305	-0.054474	0.015106	0.022278	0.075989	-0.019531	0.030212	0.003815	-0.005646	0.056	0.038605	0.009918	-0.004883	-0.068359	-0.018768	0.10269	0.21561	0.074768	0.07782	-0.39887	-0.53436	-0.007172	0.009308	0.00351	-0.000153	-0.41702	-0.002594	-0.009308
57.172	-0.02594	0.028076	0.02121	-0.003052	-0.061035	-0.067902	0.03891	0.013123	0.1001	0.009918	0.052948	0.007629	-0.02121	0.022125	0.032349	0.017548	0.025787	-0.079956	-0.11063	0.026245	0.13336	0.069275	0.10361	-0.43198	-0.57846	-0.00946	0.020294	0.00946	-0.11551	-0.26321	-0.003815	-0.00885
57.173	-0.002136	0.039825	-0.012665	0.012207	-0.11169	-0.11108	0.011444	0.005798	0.096741	-0.010681	0.059662	0.000305	-0.018768	0.036316	-0.004272	0.00824	0.009155	-0.011292	-0.032501	-0.067596	-0.26459	0.17746	0.009766	-0.099487	-0.21637	0.002441	0.006714	-0.010834	-0.091553	0.25253	-0.001831	-0.007935
57.174	0.021515	0.020905	-0.025635	-0.00061	-0.092773	-0.16449	0.005035	0.013885	0.076447	-0.007629	0.052643	0.000916	-0.003357	0.00473	-0.060883	0.006256	0.019226	0.037231	0.009003	-0.10483	-0.30487	0.068817	-0.1384	0.11185	0.003662	0.008698	0.0177	-0.084839	-0.048065	0.38788	-0.003204	-0.005493
57.175	0.031891	-0.006561	-0.023804	0.001221	-0.005188	-0.1503	0.042419	0.007935	0.002594	-0.013123	-0.005188	0.005188	0.025177	0.002899	-0.11139	0.018311	0.010529	-0.018768	-0.09552	-0.075073	0.069122	-0.018768	-0.16525	0.097809	0.080109	0.006409	0.012817	0.053711	-0.063629	0.62149	0.000153	0.003052
57.176	0.015869	0.009155	-0.030212	-0.005493	0.028534	-0.092621	0.077667	-0.000916	-0.052185	-0.019226	-0.045624	0.003815	0.019989	0.006256	-0.095673	0.006866	0.00824	-0.056763	0.011292	-0.052795	0.074005	-0.00824	-0.16892	0.052948	0.028381	-0.001831	0.017395	0.042419	-0.066681	0.33218	-0.005798	-0.011292
57.177	0.1207	0.009918	-0.015717	-0.000153	0.024109	-0.075989	0.074615	-0.007477	-0.019226	-0.003967	-0.014648	0.003204	-0.015717	-0.00061	-0.051575	0.003204	0.000305	-0.01236	0.4541	-0.058899	0.063324	-0.017395	-0.18036	-0.034485	-0.009003	0	0.003967	0.013275	0.039368	0.23056	-0.002441	0.001526
57.178	0.031586	-0.028992	-0.003357	-0.002289	0.011292	-0.043335	0.071716	-0.011139	-0.018921	0.004425	-0.006866	-0.000916	-0.034027	-0.033722	-0.035858	0.021667	-0.015564	-0.024567	0.06485	-0.03479	0.034027	0.028839	-0.22583	-0.042725	-0.045471	0.011597	-0.023193	0	0.073395	0.27405	-0.004272	-0.006714
57.179	0.009003	-0.016174	0.010681	-0.010376	0.088654	-0.034943	0.037537	-0.014801	-0.055847	0.004272	0.010681	0.006256	-0.036469	0.005341	-0.015411	0.023041	-0.014954	-0.035248	-0.16525	-0.053406	0.034485	-0.009613	-0.15533	-0.041656	-0.053406	0.007019	-0.019989	0.002899	0.063934	0.14908	-0.002441	-0.011444
57.18	0.013733	0.004272	0.006104	0.005035	0.13931	0.015564	-0.046844	-0.012512	-0.079041	0.011749	0.009613	0.003357	-0.02655	-0.007172	0.006104	0.009003	0.006409	-0.033264	0.14465	-0.10315	0.051575	-0.082245	-0.060577	-0.002899	-0.063629	-0.001221	0.005341	0.002899	0.01297	0.066986	-0.003815	-0.002747
57.181	0.018463	-0.007782	0.016174	0.014191	0.089417	0.018158	-0.04837	-0.014191	-0.040741	-0.009155	0.004272	0.001526	-0.00946	0.005798	0.019073	0.025635	-0.009003	0.009918	0.4866	-0.16556	0.037689	-0.14175	0.004578	-0.018005	-0.050049	0.001068	0.007019	0.005188	-0.046234	-0.014801	-0.000305	-0.015411
57.182	0.005798	-0.023041	0.002441	0.002136	0.037994	0.014191	-0.040894	-0.001831	0.025177	-0.007172	-0.000458	-0.001068	-0.007019	0.036621	0.001984	0.019531	0.012207	0.058289	0.81833	-0.13702	0.013733	-0.099182	-0.06958	0.000153	-0.03891	0.002594	-0.009003	0.004425	-0.010986	-0.020905	0.000305	-0.011902
57.183	-0.003967	0.037384	-0.012054	-0.00473	-0.002899	0.045319	-0.019684	0.008087	0.068817	-0.007324	0.001984	0.002747	-0.01297	0.050507	0.00946	0.002899	0.029297	-0.002899	0.2301	-0.036926	-0.005798	-0.041809	-0.028534	-0.023193	-0.074921	0.009766	-0.015259	-0.00473	0.041351	0.046692	-0.00351	-0.012512
57.184	-0.016479	-0.002899	-0.027161	-0.025482	-0.039673	0.072021	0.088959	0.004425	0.071716	-0.012512	0.009308	-0.00473	-0.005341	0.052032	0.010376	0.020447	0.027618	-0.003052	0.23163	0.007172	-0.07019	-0.058289	-0.01236	-0.059967	-0.080872	0.014954	-0.00412	-0.001984	-0.01236	0.069122	-0.003357	-0.016785
57.185	-0.014496	0.02243	-0.029755	-0.010376	-0.059967	0.085297	0.074005	0.006561	0.028839	-0.00824	0.008545	0.000458	-0.026855	0.036163	0.024719	0.016785	-0.010071	0.027618	0.39108	0.091095	0.068665	-0.11078	-0.029144	-0.093231	-0.06546	0.019836	0.009613	-0.003052	-0.041199	0.045624	-0.00473	-0.009155
57.186	-0.015564	0.072937	-0.026855	0.000153	-0.094757	0.091705	0.083771	0.007324	-0.005188	-0.003815	0.011902	-0.00061	-0.014038	0.034485	0.016785	0.017242	-0.010223	0.016174	0.1297	0.097198	0.070038	-0.090942	-0.050354	-0.068512	-0.072784	0.021515	-0.000305	-0.005646	-0.061798	0.00885	-0.00473	-0.014038
57.187	-0.010071	0.099792	-0.034332	-0.006561	-0.082855	0.044708	0.010376	0.002747	-0.057068	0.005951	0.013123	0.001678	-0.020447	0.058899	0.10712	0.016327	-0.000458	-0.026703	0.042419	0.067596	0.00351	-0.036774	-0.16861	-0.0383	-0.040894	0.007477	0.018311	-0.00351	-0.16708	-0.009155	-0.005341	-0.012054
57.188	-0.009308	0.053406	-0.06012	-0.005035	0.023804	0.022278	0.075226	0.008545	-0.087433	0.00473	-0.003204	-0.002136	0.012817	0.054474	0.026093	0.011749	-0.018921	-0.023956	0.032043	0.050354	0.048523	-0.075684	-0.2095	0.059814	-0.044556	0.014191	0.029602	-0.008087	-0.21896	-0.05661	0	-0.006714
57.189	-0.009003	0.069733	-0.053406	-0.005493	0.027466	0.027161	0.025482	0.003967	-0.081177	0.001221	-0.002747	0.001373	0.040741	0.068359	-0.002441	0.010223	-0.029602	0.030975	0.045166	0.024567	0.11444	-0.065765	-0.19653	0.13473	0.13794	0.010681	-0.003357	-0.007324	-0.2681	-0.045319	-0.007477	-0.006561
57.19	0.003967	0.05249	-0.02243	-0.022736	-0.029449	0.001221	-0.030975	0.003967	-0.044098	0.000305	-0.018616	-0.0177	0.015717	0.065155	-0.021973	0.003204	-0.017395	-0.086823	0.24674	-0.025635	0.02594	0.009918	-0.085449	0.090332	0.082855	0.005341	-0.00946	-0.011749	-0.25818	-0.085754	-0.003357	-0.015411
57.191	-0.001068	0.059967	-0.038757	-0.001221	-0.044556	-0.04776	-0.026855	-0.000763	0.011902	0.001068	-0.00824	-0.001373	-0.008698	0.086517	-0.055389	0.013733	-0.021973	-0.004425	0.28366	-0.13367	-0.020142	0.090637	-0.050507	0.000305	0.03952	-0.043335	-0.011597	-0.023651	0.044098	-0.092621	-0.001221	-0.008545
57.192	0.020294	0.11765	-0.070038	0.032654	-0.082092	-0.061951	-0.028534	0.007477	0.031433	-0.001373	0.007477	-0.006256	-0.000153	0.089417	-0.14771	-0.001221	-0.028229	0.000458	0.30197	-0.1062	0.016022	0.075989	-0.041046	0.025635	0.00061	-0.033875	-0.018768	-0.00946	0.1265	-0.20737	-0.006714	-0.001831
57.193	0.014191	0.095062	-0.057373	0.009918	-0.058136	-0.046997	-0.050201	0.009155	-0.02243	-0.003662	0.011444	-0.003357	0.027924	0.10132	-0.21393	-0.014801	0.005798	-0.082703	0.33203	-0.035553	0.013428	0.052795	-0.045929	0.071259	0.018463	-0.010223	-0.037842	0.0354	0.027924	-0.29236	-0.001984	-0.006561
57.194	0.014191	0.068512	-0.11154	0.002747	-0.092773	-0.072327	-0.1001	0.000153	-0.00351	0.000153	0.039825	-0.002289	0.003052	0.10086	-0.23041	0.001526	0.043488	-0.070801	0.2449	-0.010376	0.0177	0.039368	-0.051117	0.039368	0.029144	0.002289	-0.029297	-0.000763	0.043182	-0.37262	-0.001526	-0.009766
57.195	0.015106	0.091553	-0.12543	0.00061	-0.027466	-0.045624	-0.018005	0.001221	0.058899	0.004425	0.074463	-0.006561	-0.027924	0.14358	-0.077057	-0.027466	0.026703	-0.12299	0.079346	0.020447	-0.014648	0.058899	0.005646	0.050049	0.05127	-0.009308	-0.014343	-0.37384	0.048676	-0.19211	-0.000458	-0.011444
57.196	0.018921	0.10635	-0.12619	0.002136	0.049438	0.023346	0.003204	-0.002289	0.1001	0.008392	0.075073	-0.004883	-0.035553	0.11795	0.15839	-0.017242	0.003204	-0.1207	0.10391	0.035095	-0.047302	0.10056	0.088501	-0.053101	0.008392	0.020294	-0.001678	0.10788	0.057983	0.069122	-0.004578	-0.021973
57.197	0.015564	0.095062	-0.067444	0.013428	0.10086	0.063934	0.03891	0.002289	0.090637	-0.020905	0.05127	-0.008698	0.015259	0.067902	0.24002	-0.01358	0.016632	-0.11734	0.087891	0.084839	-0.056	0.070343	0.19333	-0.062866	-0.043182	0.017395	0.001068	0.1413	0.15533	0.30991	-0.002441	-0.016327
57.198	0.006714	0.084534	0.030975	-0.012817	0.043793	0.10788	-0.001984	0.004425	0.072479	-0.004272	-0.019836	-0.000916	0.000305	0.031586	0.19226	-0.009308	-0.002899	-0.073547	0.16342	0.099182	-0.082855	0.091705	0.2623	-0.011749	-0.072632	-0.024567	-0.002899	0.072174	0.40253	0.58807	-0.002136	-0.007324
57.199	0.004883	0.121	0.12833	0.01236	0.040894	0.12177	-0.053101	0.002747	0.054474	-0.011292	-0.018005	-0.01236	-0.038147	0.052338	0.1178	-0.027924	0.008087	-0.087585	0.086517	0.029602	-0.042114	0.007935	0.26169	-0.009766	-0.057373	-0.035248	-0.019531	0.064087	0.21393	0.29816	-0.004272	-0.011444
57.2	-0.002594	0.10361	0.12482	0.001831	0.028687	0.097961	-0.033722	0.002594	0.014191	-0.010376	-0.001831	-0.009003	-0.058594	0.060577	0.034943	-0.032043	0.023804	-0.07309	-0.085449	0.072021	0.025787	-0.09079	0.21118	0.010834	-0.11398	-0.008698	-0.028534	0.038605	-0.006104	0.065613	-0.002136	-0.006409
57.201	0.003357	0.1149	0.076447	0.001221	0.050659	0.072784	-0.035858	0.011292	0.009155	-0.000458	-0.005951	-0.017853	-0.050507	0.063782	-0.031738	-0.036774	0.005188	-0.11887	-0.097351	0.088654	0.019684	-0.14069	0.1619	0.028534	-0.17258	-0.014343	-0.02655	0.003357	0.067444	-0.012512	-0.007935	-0.013885
57.202	0.004272	0.11032	0.049896	-0.003052	0.10284	-0.016174	-0.037994	0.007172	0.024872	-0.00885	-0.00061	-0.015564	-0.040283	0.032806	0.030823	-0.035095	0.019379	-0.13306	0.035248	0.10513	0.064392	-0.14496	0.053101	-0.042877	-0.10757	-0.036316	-0.03479	0.030518	0.038452	-0.31494	-0.006409	-0.020447
57.203	-0.019226	0.13428	0.059204	0.010376	0.093689	-0.072479	-0.00412	-0.001678	0.0383	0.002594	-0.003815	-0.023499	-0.03418	0.052185	0.053253	-0.028687	0.012207	-0.10178	-0.12131	0.055542	0.016785	-0.11215	-0.22964	-0.086823	0.005035	0.006104	-0.037537	0.008392	0.12711	-0.13153	-0.003052	-0.010071
57.204	-0.02243	0.12528	0.046997	0.003052	0.01297	-0.081635	0.022583	0.007629	0.011749	-0.019073	0.000305	-0.034637	-0.016785	0.085907	0.012817	-0.042114	0.007324	-0.13779	-0.088959	0.010071	0.070343	-0.074615	-0.44556	-0.043488	0.10727	0.021515	-0.04715	-0.017242	0.16663	0.070953	-0.00061	-0.00885
57.205	-0.015411	0.092163	0.04715	-0.00412	-0.058136	-0.12299	0.02533	0.003052	0.011139	-0.032654	0.004578	-0.027161	-0.030975	0.003052	-0.06546	-0.038757	0.034943	-0.097809	-0.1416	-0.03006	0.14374	-0.013733	-0.27161	-0.013275	0.20081	0.020142	-0.03952	0.03418	0.13779	0.069885	-0.000153	-0.001373
57.206	-0.020752	0.031586	0.011292	-0.013733	-0.13199	-0.057831	0.032043	0.016327	-0.007477	-0.013733	0.001221	-0.032959	-0.04364	-0.044708	-0.053558	-0.042572	0.03952	-0.11948	-0.075378	-0.003052	0.096588	0.040741	-0.085449	0.028839	0.15488	0.002747	-0.027924	0.000763	0.063782	-0.061188	-0.001831	-0.006104
57.207	-0.014954	-0.006866	0.016174	0.003815	-0.12039	-0.022278	-0.001678	0	-0.048065	-0.011597	-0.001831	-0.033264	-0.031738	-0.018158	-0.02243	-0.031891	0.014496	-0.081635	-0.2124	-0.007629	-0.087433	0.10819	-0.18219	-0.11246	0.077362	0.012512	-0.02121	-0.014954	0.043793	0.066071	-0.00351	-0.008698
57.208	-0.002289	-0.00473	-0.003662	0.002899	0.036469	-0.060883	-0.02655	-0.003204	-0.053864	-0.012512	-0.001373	-0.0354	-0.079956	0.015564	0.014496	-0.066223	0.012054	-0.11032	-0.36636	0.014343	-0.022888	0.019836	-0.22324	-0.21912	0.044098	0.010529	-0.0177	-0.016327	0.036316	0.28625	0.000916	0.001221
